<mxfile host="app.diagrams.net" agent="Mozilla/5.0 (Windows NT 10.0; Win64; x64) AppleWebKit/537.36 (KHTML, like Gecko) Chrome/130.0.0.0 Whale/4.29.282.15 Safari/537.36" version="26.0.8">
  <diagram name="페이지-1" id="94CjgT9I-Byphy7BqAqj">
    <mxGraphModel dx="566" dy="796" grid="1" gridSize="10" guides="1" tooltips="1" connect="1" arrows="1" fold="1" page="1" pageScale="1" pageWidth="1169" pageHeight="827" math="0" shadow="0">
      <root>
        <mxCell id="0" />
        <mxCell id="1" parent="0" />
        <mxCell id="2lXz9BNZ_RMPSrKGTlO6-7" value="&lt;b&gt;Google &lt;/b&gt;Cloud Platform" style="fillColor=#F6F6F6;strokeColor=none;shadow=0;gradientColor=none;fontSize=14;align=left;spacing=10;fontColor=#717171;9E9E9E;verticalAlign=top;spacingTop=-4;fontStyle=0;spacingLeft=40;html=1;whiteSpace=wrap;" vertex="1" parent="1">
          <mxGeometry x="150" y="40" width="490" height="570" as="geometry" />
        </mxCell>
        <mxCell id="2lXz9BNZ_RMPSrKGTlO6-8" value="" style="shape=mxgraph.gcp2.google_cloud_platform;fillColor=#F6F6F6;strokeColor=none;shadow=0;gradientColor=none;" vertex="1" parent="2lXz9BNZ_RMPSrKGTlO6-7">
          <mxGeometry width="23" height="20" relative="1" as="geometry">
            <mxPoint x="20" y="10" as="offset" />
          </mxGeometry>
        </mxCell>
        <mxCell id="2lXz9BNZ_RMPSrKGTlO6-24" value="&lt;font style=&quot;color: rgb(0, 0, 0);&quot;&gt;&lt;b&gt;VPC Network&lt;/b&gt;&lt;/font&gt;" style="sketch=0;points=[[0,0,0],[0.25,0,0],[0.5,0,0],[0.75,0,0],[1,0,0],[1,0.25,0],[1,0.5,0],[1,0.75,0],[1,1,0],[0.75,1,0],[0.5,1,0],[0.25,1,0],[0,1,0],[0,0.75,0],[0,0.5,0],[0,0.25,0]];rounded=1;absoluteArcSize=1;arcSize=2;html=1;strokeColor=none;gradientColor=none;shadow=0;dashed=0;fontSize=12;fontColor=#9E9E9E;align=left;verticalAlign=top;spacing=10;spacingTop=-4;whiteSpace=wrap;fillColor=#E1F5FE;" vertex="1" parent="2lXz9BNZ_RMPSrKGTlO6-7">
          <mxGeometry x="30.31" y="53" width="429.38" height="497" as="geometry" />
        </mxCell>
        <mxCell id="2lXz9BNZ_RMPSrKGTlO6-23" value="" style="edgeStyle=orthogonalEdgeStyle;fontSize=12;html=1;endArrow=blockThin;endFill=1;rounded=0;strokeWidth=2;endSize=4;startSize=4;dashed=0;strokeColor=#4284F3;" edge="1" parent="2lXz9BNZ_RMPSrKGTlO6-7">
          <mxGeometry width="100" relative="1" as="geometry">
            <mxPoint x="-30.615000000000006" y="120.01308900523563" as="sourcePoint" />
            <mxPoint x="30.635" y="120.01308900523563" as="targetPoint" />
            <Array as="points">
              <mxPoint x="-6.115000000000002" y="120.01308900523563" />
              <mxPoint x="-6.115000000000002" y="120.01308900523563" />
            </Array>
          </mxGeometry>
        </mxCell>
        <mxCell id="2lXz9BNZ_RMPSrKGTlO6-17" value="Users" style="strokeColor=#dddddd;shadow=1;strokeWidth=1;rounded=1;absoluteArcSize=1;arcSize=2;labelPosition=center;verticalLabelPosition=middle;align=center;verticalAlign=bottom;spacingLeft=0;fontColor=#999999;fontSize=12;whiteSpace=wrap;spacingBottom=2;html=1;" vertex="1" parent="1">
          <mxGeometry x="40" y="120" width="80" height="80" as="geometry" />
        </mxCell>
        <mxCell id="2lXz9BNZ_RMPSrKGTlO6-18" value="" style="sketch=0;dashed=0;connectable=0;html=1;fillColor=#757575;strokeColor=none;shape=mxgraph.gcp2.users;part=1;" vertex="1" parent="2lXz9BNZ_RMPSrKGTlO6-17">
          <mxGeometry x="0.5" width="50" height="31.5" relative="1" as="geometry">
            <mxPoint x="-25" y="19.25" as="offset" />
          </mxGeometry>
        </mxCell>
      </root>
    </mxGraphModel>
  </diagram>
</mxfile>
